<svg xmlns="http://www.w3.org/2000/svg" viewBox="0 0 361.47 103.69"><defs><style>.cls-1{fill:#fff;}</style></defs><g id="Layer_2" data-name="Layer 2"><g id="Layer_1-2" data-name="Layer 1"><path class="cls-1" d="M51.84,103.69a51.85,51.85,0,1,1,51.85-51.84A51.9,51.9,0,0,1,51.84,103.69Zm0-93.69A41.85,41.85,0,1,0,93.69,51.85,41.89,41.89,0,0,0,51.84,10Z"/><path class="cls-1" d="M180.74,103.69a51.85,51.85,0,1,1,51.84-51.84A51.91,51.91,0,0,1,180.74,103.69Zm0-93.69a41.85,41.85,0,1,0,41.84,41.85A41.89,41.89,0,0,0,180.74,10Z"/><path class="cls-1" d="M309.63,103.69a51.85,51.85,0,1,1,51.84-51.84A51.91,51.91,0,0,1,309.63,103.69Zm0-93.69a41.85,41.85,0,1,0,41.84,41.85A41.89,41.89,0,0,0,309.63,10Z"/></g></g></svg>